<svg fill="#2EE59D" xmlns="http://www.w3.org/2000/svg" viewBox="0 0 720.53 335.46"><title>logo_main</title><g id="Layer_2" data-name="Layer 2"><g id="Layer_1-2" data-name="Layer 1"><path d="M166.93,335.31H0V.45C1.73,0,164.13-.12,166.93.37Z"/><path d="M357.36,173.18H675.24a16.33,16.33,0,0,1,.2,1.83c0,12.25.19,24.51-.05,36.75q-1,49-34.93,84.42c-12.18,12.68-26.1,22.87-42.37,29.71a120.86,120.86,0,0,1-47,9.52q-34.23.08-68.46,0-45.54-.13-80.14-29.8c-13.6-11.63-24.76-25.23-32.71-41.34a115.3,115.3,0,0,1-11.47-39.43c-.6-5.8-.86-11.65-.94-17.49-.15-10.49,0-21,0-31.47C357.36,175,357.36,174.18,357.36,173.18Z"/><path d="M720.42,162.43H402.55a13.06,13.06,0,0,1-.22-1.69c0-12.89-.22-25.79.24-38.67,1-28.17,10.78-53.09,28.88-74.7A136,136,0,0,1,471.32,14.3,113.79,113.79,0,0,1,515.1.95c6-.55,12-.8,18-.83q30.38-.15,60.77,0A129.22,129.22,0,0,1,629.64,5c19.31,5.6,36,15.7,50.49,29.52,16.8,16,29,34.85,35.43,57.29a110.4,110.4,0,0,1,4.59,27.88c.3,13.76.27,27.54.38,41.3C720.53,161.42,720.47,161.8,720.42,162.43Z"/><path d="M178.74,162.53V.26c.62-.06,1.24-.18,1.85-.18,22,0,44-.22,66.06.05,29,.36,53.19,11.86,72.89,33,11.71,12.55,20,27,23.61,43.87,6.46,30.11,1.67,58-16.93,83.13a5.43,5.43,0,0,1-5,2.46q-69.66-.1-139.33-.05Z"/><path d="M345.8,335.43H343c-12.73,0-25.46,0-38.18,0q-45.39-.2-79.91-29.71c-14.72-12.59-26.64-27.39-34.86-45a116.13,116.13,0,0,1-10.39-37c-.6-5.64-.88-11.33-1-17-.15-10.24,0-20.49,0-30.74v-2.73H324.73Z"/></g></g></svg>